<svg width="398" height="361" viewBox="0 0 398 361" fill="none" xmlns="http://www.w3.org/2000/svg">
<path d="M362.829 58.4214C357.786 42.5644 347.482 28.7962 342.961 23.8941C315.704 0.108714 289.022 8.38886 268.834 23.8941L21.0811 272.059C94.8086 276.028 255.27 275.384 307.294 241.048C356.906 208.304 366.811 130.763 365.92 87.0342M362.829 58.4214L389 87.0342H365.92M362.829 58.4214C364.323 63.1207 365.643 73.4448 365.92 87.0342" stroke="#CDE4CD" stroke-width="17.6055" stroke-linejoin="round"/>
<path d="M71.8281 274.457L6 338.796C16.3197 347.267 41.0764 361.67 57.5454 351.503C74.0144 341.337 120.953 295.903 142.364 274.457" stroke="#CDE4CD" stroke-width="11.0292" stroke-linejoin="round"/>
<path d="M47.4121 243.925C73.0518 244.432 136.492 239.274 166.94 203.724C197.389 168.173 198.139 121.135 194.708 102.06" stroke="#CDE4CD" stroke-width="11.0034" stroke-linejoin="round"/>
<path d="M47.4121 273.858C78.4524 274.471 190.72 264.998 227.582 221.946C264.444 178.895 216.171 110.372 201.729 93.3484" stroke="#CDE4CD" stroke-width="11.0034" stroke-linejoin="round"/>
<path d="M199.973 269.021L181.94 301.79" stroke="#CDE4CD" stroke-width="11.0034" stroke-linecap="round" stroke-linejoin="round"/>
<path d="M215.453 267.343L227.502 287.963" stroke="#CDE4CD" stroke-width="11.0034" stroke-linecap="round" stroke-linejoin="round"/>
<ellipse cx="314.874" cy="73.4471" rx="10.6921" ry="10.7098" fill="#CDE4CD"/>
<path d="M100.314 277.733L26.9053 349.505" stroke="#CDE4CD" stroke-width="6.48774" stroke-linecap="round" stroke-linejoin="round"/>
</svg>
