<svg xmlns="http://www.w3.org/2000/svg">

<symbol id="setup" viewBox="0 0 50 50">
    <path d="M47.16,21.221l-5.91-0.966c-0.346-1.186-0.819-2.326-1.411-3.405l3.45-4.917c0.279-0.397,0.231-0.938-0.112-1.282 l-3.889-3.887c-0.347-0.346-0.893-0.391-1.291-0.104l-4.843,3.481c-1.089-0.602-2.239-1.08-3.432-1.427l-1.031-5.886 C28.607,2.35,28.192,2,27.706,2h-5.5c-0.49,0-0.908,0.355-0.987,0.839l-0.956,5.854c-1.2,0.345-2.352,0.818-3.437,1.412l-4.83-3.45 c-0.399-0.285-0.942-0.239-1.289,0.106L6.82,10.648c-0.343,0.343-0.391,0.883-0.112,1.28l3.399,4.863 c-0.605,1.095-1.087,2.254-1.438,3.46l-5.831,0.971c-0.482,0.08-0.836,0.498-0.836,0.986v5.5c0,0.485,0.348,0.9,0.825,0.985 l5.831,1.034c0.349,1.203,0.831,2.362,1.438,3.46l-3.441,4.813c-0.284,0.397-0.239,0.942,0.106,1.289l3.888,3.891 c0.343,0.343,0.884,0.391,1.281,0.112l4.87-3.411c1.093,0.601,2.248,1.078,3.445,1.424l0.976,5.861C21.3,47.647,21.717,48,22.206,48 h5.5c0.485,0,0.9-0.348,0.984-0.825l1.045-5.89c1.199-0.353,2.348-0.833,3.43-1.435l4.905,3.441 c0.398,0.281,0.938,0.232,1.282-0.111l3.888-3.891c0.346-0.347,0.391-0.894,0.104-1.292l-3.498-4.857 c0.593-1.08,1.064-2.222,1.407-3.408l5.918-1.039c0.479-0.084,0.827-0.5,0.827-0.985v-5.5C47.999,21.718,47.644,21.3,47.16,21.221z M25,32c-3.866,0-7-3.134-7-7c0-3.866,3.134-7,7-7s7,3.134,7,7C32,28.866,28.866,32,25,32z"/>
</symbol>


<symbol id="bird-icon" viewBox="0 0 711 644">
<path d="M650.208 102.701C641.147 74.2414 622.632 49.5301 614.508 40.732C565.531 -1.95806 517.586 12.9031 481.313 40.732L36.1348 486.137C168.613 493.262 456.939 492.105 550.419 430.479C639.566 371.711 657.363 232.54 655.762 154.056M650.208 102.701L697.235 154.056H655.762M650.208 102.701C652.893 111.136 655.264 129.665 655.762 154.056" stroke="#A7A7A7" stroke-width="27.1366" stroke-linejoin="round"/>
<path d="M127.321 490.44L9.03711 605.916C27.5802 621.121 72.0646 646.971 101.657 628.724C131.25 610.477 215.592 528.932 254.064 490.44" stroke="#A7A7A7" stroke-width="17" stroke-linejoin="round"/>
<path d="M83.4492 435.644C129.52 436.552 243.513 427.295 298.224 363.489C352.936 299.684 354.284 215.26 348.119 181.024" stroke="#A7A7A7" stroke-width="16.9604" stroke-linejoin="round"/>
<path d="M83.4492 489.367C139.224 490.467 340.953 473.464 407.189 396.196C473.425 318.927 386.686 195.943 360.736 165.388" stroke="#A7A7A7" stroke-width="16.9604" stroke-linejoin="round"/>
<path d="M357.58 480.686L325.178 539.5" stroke="#A7A7A7" stroke-width="16.9604" stroke-linecap="round" stroke-linejoin="round"/>
<path d="M385.395 477.674L407.044 514.683" stroke="#A7A7A7" stroke-width="16.9604" stroke-linecap="round" stroke-linejoin="round"/>
<ellipse cx="564.04" cy="129.67" rx="19.2122" ry="19.222" fill="#A7A7A7"/>
<path d="M178.506 496.322L46.6016 625.138" stroke="#A7A7A7" stroke-width="10" stroke-linecap="round" stroke-linejoin="round"/>
</symbol>

<symbol id="rs-logo" viewBox="0 0 552.8 205.3">
    <path d="M285.4 68l26.3-1.7c.6 4.3 1.7 7.5 3.5 9.8 2.9 3.6 6.9 5.4 12.2 5.4 3.9 0 7-.9 9.1-2.8 2-1.5 3.2-3.9 3.2-6.4 0-2.4-1.1-4.7-3-6.2-2-1.8-6.7-3.6-14.1-5.2-12.1-2.7-20.8-6.3-25.9-10.9-5.1-4.3-8-10.6-7.8-17.3 0-4.6 1.4-9.2 4-13 3-4.3 7.1-7.7 12-9.6 5.3-2.3 12.7-3.5 22-3.5 11.4 0 20.1 2.1 26.1 6.4 6 4.2 9.6 11 10.7 20.3l-26 1.5c-.7-4-2.1-6.9-4.4-8.8s-5.3-2.8-9.2-2.8c-3.2 0-5.6.7-7.2 2-1.5 1.2-2.5 3-2.4 5 0 1.5.8 2.9 2 3.8 1.3 1.2 4.4 2.3 9.3 3.3 12.1 2.6 20.7 5.2 26 7.9 5.3 2.7 9.1 6 11.4 9.9 2.4 4 3.6 8.6 3.5 13.3 0 5.6-1.6 11.2-4.8 15.9-3.3 4.9-7.9 8.7-13.3 11-5.7 2.5-12.9 3.8-21.5 3.8-15.2 0-25.7-2.9-31.6-8.8S286.1 77 285.4 68zM6.3 97.6V8.2h46.1c8.5 0 15.1.7 19.6 2.2 4.4 1.4 8.3 4.3 10.9 8.2 2.9 4.3 4.3 9.3 4.2 14.5.3 8.8-4.2 17.2-11.9 21.6-3 1.7-6.3 2.9-9.7 3.5 2.5.7 5 1.9 7.2 3.3 1.7 1.4 3.1 3 4.4 4.7 1.5 1.7 2.8 3.6 3.9 5.6l13.4 25.9H63L48.2 70.2c-1.9-3.5-3.5-5.8-5-6.9-2-1.4-4.4-2.1-6.8-2.1H34v36.3H6.3zM34 44.4h11.7c2.5-.2 4.9-.6 7.3-1.2 1.8-.3 3.4-1.3 4.5-2.8 2.7-3.6 2.3-8.7-1-11.8-1.8-1.5-5.3-2.3-10.3-2.3H34v18.1zM0 174.2l26.3-1.7c.6 4.3 1.7 7.5 3.5 9.8 2.8 3.6 6.9 5.5 12.2 5.5 3.9 0 7-.9 9.1-2.8 2-1.6 3.2-3.9 3.2-6.4 0-2.4-1.1-4.7-3-6.2-2-1.8-6.7-3.6-14.2-5.2-12.1-2.7-20.8-6.3-25.9-10.9-5.1-4.3-8-10.6-7.8-17.3 0-4.6 1.4-9.2 4-13 3-4.3 7.1-7.7 12-9.6 5.3-2.3 12.7-3.5 22-3.5 11.4 0 20.1 2.1 26.1 6.4s9.5 11 10.6 20.3l-26 1.5c-.7-4-2.1-6.9-4.4-8.8-2.2-1.9-5.3-2.8-9.2-2.7-3.2 0-5.6.7-7.2 2.1-1.6 1.2-2.5 3-2.4 5 0 1.5.8 2.9 2 3.8 1.3 1.2 4.4 2.3 9.3 3.3 12.1 2.6 20.7 5.2 26 7.9 5.3 2.7 9.1 6 11.4 9.9 2.4 4 3.6 8.6 3.6 13.2 0 5.6-1.7 11.1-4.8 15.8-3.3 4.9-7.9 8.7-13.3 11-5.7 2.5-12.9 3.8-21.5 3.8-15.2 0-25.7-2.9-31.6-8.8-5.9-6-9.2-13.4-10-22.4z"/><path d="M133 167.2l24.2 7.3c-1.3 6.1-4 11.9-7.7 17-3.4 4.5-7.9 8-13 10.3-5.2 2.3-11.8 3.5-19.8 3.5-9.7 0-17.7-1.4-23.8-4.2-6.2-2.8-11.5-7.8-16-14.9-4.5-7.1-6.7-16.2-6.7-27.3 0-14.8 3.9-26.2 11.8-34.1s19-11.9 33.4-11.9c11.3 0 20.1 2.3 26.6 6.8 6.4 4.6 11.2 11.6 14.4 21l-24.4 5.4c-.6-2.1-1.5-4.2-2.7-6-1.5-2.1-3.4-3.7-5.7-4.9-2.3-1.2-4.9-1.7-7.5-1.7-6.3 0-11.1 2.5-14.4 7.6-2.5 3.7-3.8 9.6-3.8 17.6 0 9.9 1.5 16.7 4.5 20.4 3 3.7 7.2 5.5 12.7 5.5 5.3 0 9.3-1.5 12-4.4 2.7-3.1 4.7-7.4 5.9-13zm56.5-52.8h27.6v31.3h30.2v-31.3h27.8v89.4h-27.8v-36.2h-30.2v36.2h-27.6v-89.4z"/><path d="M271.3 159.1c0-14.6 4.1-26 12.2-34.1 8.1-8.1 19.5-12.2 34-12.2 14.9 0 26.3 4 34.4 12S364 144 364 158.4c0 10.5-1.8 19-5.3 25.7-3.4 6.6-8.7 12-15.2 15.6-6.7 3.7-15 5.6-24.9 5.6-10.1 0-18.4-1.6-25-4.8-6.8-3.4-12.4-8.7-16.1-15.2-4.1-7-6.2-15.7-6.2-26.2zm27.6.1c0 9 1.7 15.5 5 19.5 3.3 3.9 7.9 5.9 13.7 5.9 5.9 0 10.5-1.9 13.8-5.8s4.9-10.8 4.9-20.8c0-8.4-1.7-14.6-5.1-18.4-3.4-3.9-8-5.8-13.8-5.8-5.1-.2-10 2-13.4 5.9-3.4 3.9-5.1 10.4-5.1 19.5zm93.4-.1c0-14.6 4.1-26 12.2-34.1 8.1-8.1 19.5-12.2 34-12.2 14.9 0 26.4 4 34.4 12S485 144 485 158.4c0 10.5-1.8 19-5.3 25.7-3.4 6.6-8.7 12-15.2 15.6-6.7 3.7-15 5.6-24.9 5.6-10.1 0-18.4-1.6-25-4.8-6.8-3.4-12.4-8.7-16.1-15.2-4.1-7-6.2-15.7-6.2-26.2zm27.6.1c0 9 1.7 15.5 5 19.5 3.3 3.9 7.9 5.9 13.7 5.9 5.9 0 10.5-1.9 13.8-5.8 3.3-3.9 4.9-10.8 4.9-20.8 0-8.4-1.7-14.6-5.1-18.4-3.4-3.9-8-5.8-13.8-5.8-5.1-.2-10.1 2-13.4 5.9-3.4 3.9-5.1 10.4-5.1 19.5z"/><path d="M482.1 114.4h27.6v67.4h43.1v22H482v-89.4z"/><ellipse transform="rotate(-37.001 420.46 67.88)" class="st0" cx="420.5" cy="67.9" rx="63" ry="51.8"/><defs><ellipse id="SVGID_1_" transform="rotate(-37.001 420.46 67.88)" cx="420.5" cy="67.9" rx="63" ry="51.8"/></defs><clipPath id="SVGID_2_"><use xlink:href="#SVGID_1_" overflow="visible"/></clipPath><g class="st1"><path transform="rotate(-37.001 420.82 68.353)" class="st0" d="M330.9-14.2h179.8v165.1H330.9z"/><g id="Layer_2_1_"><defs><path id="SVGID_3_" transform="rotate(-37.001 420.82 68.353)" d="M330.9-14.2h179.8v165.1H330.9z"/></defs><clipPath id="SVGID_4_"><use xlink:href="#SVGID_3_" overflow="visible"/></clipPath><g id="Layer_1-2" class="st2"><ellipse transform="rotate(-37.001 420.46 67.88)" class="st0" cx="420.5" cy="67.9" rx="63" ry="51.8"/><defs><ellipse id="SVGID_5_" transform="rotate(-37.001 420.46 67.88)" cx="420.5" cy="67.9" rx="63" ry="51.8"/></defs><clipPath id="SVGID_6_"><use xlink:href="#SVGID_5_" overflow="visible"/></clipPath><g class="st3"><path transform="rotate(-37 420.799 68.802)" class="st0" d="M357.8 17h125.9v103.7H357.8z"/><defs><path id="SVGID_7_" transform="rotate(-37 420.799 68.802)" d="M357.8 17h125.9v103.7H357.8z"/></defs><clipPath id="SVGID_8_"><use xlink:href="#SVGID_7_" overflow="visible"/></clipPath><g class="st4"><ellipse transform="rotate(-37.001 420.46 67.88)" class="st5" cx="420.5" cy="67.9" rx="63" ry="51.8"/></g><path transform="rotate(-37 420.799 68.802)" class="st6" d="M357.8 17h125.9v103.7H357.8z"/><ellipse transform="rotate(-37.001 420.46 67.88)" class="st7" cx="420.5" cy="67.9" rx="63" ry="51.8"/><path transform="rotate(-37 420.799 68.802)" class="st0" d="M357.8 17h125.9v103.7H357.8z"/><defs><path id="SVGID_9_" transform="rotate(-37 420.799 68.802)" d="M357.8 17h125.9v103.7H357.8z"/></defs><clipPath id="SVGID_10_"><use xlink:href="#SVGID_9_" overflow="visible"/></clipPath><g class="st8"><ellipse transform="rotate(-37.001 420.46 67.88)" class="st5" cx="420.5" cy="67.9" rx="63" ry="51.8"/></g><path transform="rotate(-37 420.799 68.802)" class="st9" d="M357.8 17h125.9v103.7H357.8z"/><path transform="rotate(-37.001 420.82 68.353)" class="st7" d="M330.9-14.2h179.8v165.1H330.9z"/></g><ellipse transform="rotate(-37.001 420.46 67.88)" class="st7" cx="420.5" cy="67.9" rx="63" ry="51.8"/><path d="M392.4 61.3l10-7 12.3 17.5c2.1 2.8 3.7 5.8 4.9 9.1.7 2.5.5 5.2-.5 7.6-1.3 3-3.4 5.5-6.2 7.3-3.3 2.3-6.1 3.6-8.5 4-2.3.4-4.7 0-6.9-1-2.4-1.2-4.5-2.9-6.1-5.1l8.6-8c.7 1.1 1.6 2.1 2.6 2.9.7.5 1.5.8 2.4.8.7 0 1.4-.3 1.9-.7 1-.6 1.7-1.8 1.6-3-.3-1.7-1-3.4-2.1-4.7l-14-19.7zm30 11.1l9.1-7.2c1 1.2 2.3 2.1 3.7 2.6 2 .6 4.1.2 5.8-1.1 1.2-.8 2.2-1.9 2.6-3.3.6-1.8-.4-3.8-2.2-4.4-.3-.1-.6-.2-.9-.2-1.2-.1-3.3.4-6.4 1.7-5.1 2.1-9.1 2.9-12.1 2.6-2.9-.3-5.6-1.8-7.2-4.3-1.2-1.7-1.8-3.7-1.9-5.7 0-2.3.6-4.6 1.9-6.5 1.9-2.7 4.2-5 7-6.8 4.2-2.9 7.9-4.3 11.1-4.3 3.2 0 6.2 1.5 9 4.6l-9 7.1c-1.8-2.3-5.2-2.8-7.5-1l-.3.3c-1 .6-1.7 1.5-2.1 2.6-.3.8-.1 1.7.4 2.4.4.5 1 .9 1.7.9.8.1 2.2-.3 4.2-1.2 5-2.1 8.8-3.3 11.4-3.7 2.2-.4 4.5-.2 6.6.7 1.9.8 3.5 2.2 4.6 3.9 1.4 2 2.2 4.4 2.3 6.9.1 2.6-.6 5.1-2 7.3-1.8 2.7-4.1 5-6.8 6.8-5.5 3.8-10 5.4-13.6 4.8-3.9-.6-7.1-2.6-9.4-5.5z"/></g></g></g>
</symbol>

</svg>